<?xml version="1.0" encoding="UTF-8" standalone="no"?>
<!-- Created with Inkscape (http://www.inkscape.org/) -->

<svg
   width="66.989182mm"
   height="66.989182mm"
   viewBox="0 0 66.989182 66.989181"
   version="1.1"
   id="svg238"
   sodipodi:docname="Aim.svg"
   inkscape:export-filename="Sword.svg"
   inkscape:export-xdpi="96"
   inkscape:export-ydpi="96"
   inkscape:version="1.3.2 (091e20ef0f, 2023-11-25)"
   xmlns:inkscape="http://www.inkscape.org/namespaces/inkscape"
   xmlns:sodipodi="http://sodipodi.sourceforge.net/DTD/sodipodi-0.dtd"
   xmlns="http://www.w3.org/2000/svg"
   xmlns:svg="http://www.w3.org/2000/svg">
  <sodipodi:namedview
     id="namedview240"
     pagecolor="#505050"
     bordercolor="#ffffff"
     borderopacity="1"
     inkscape:showpageshadow="0"
     inkscape:pageopacity="0"
     inkscape:pagecheckerboard="1"
     inkscape:deskcolor="#505050"
     inkscape:document-units="mm"
     showgrid="false"
     inkscape:zoom="0.84852814"
     inkscape:cx="-120.20815"
     inkscape:cy="212.13203"
     inkscape:window-width="2476"
     inkscape:window-height="1371"
     inkscape:window-x="0"
     inkscape:window-y="0"
     inkscape:window-maximized="1"
     inkscape:current-layer="layer1" />
  <defs
     id="defs235" />
  <g
     inkscape:label="Layer 1"
     inkscape:groupmode="layer"
     id="layer1"
     transform="translate(-51.727356,-73.334946)">
    <path
       style="fill:none;fill-opacity:1;stroke:#ffffff;stroke-width:4;stroke-linecap:round;stroke-linejoin:round;stroke-dasharray:none;stroke-opacity:1"
       d="m 85.608577,75.394466 c 14.990683,0.154558 30.152223,11.945988 30.730683,28.749964 3.6588,15.04354 -15.70396,35.36086 -30.877313,34.03152 -14.953298,1.29634 -34.144729,-16.52809 -31.09737,-32.12422 -2.203259,-15.285352 15.813206,-31.545196 31.244,-30.657264 z"
       id="path13"
       sodipodi:nodetypes="ccccc"
       inkscape:label="path13" />
    <path
       style="display:inline;fill:none;fill-opacity:1;stroke:#ffffff;stroke-width:4;stroke-linecap:round;stroke-linejoin:round;stroke-dasharray:none;stroke-opacity:1"
       d="M 84.898109,84.840277 C 95.493704,83.878029 108.5725,97.955344 106.90902,107.59182 106.69773,117.74685 95.428167,128.58789 85.134818,128.34515 73.908157,129.34694 61.850325,116.07651 63.833801,105.9777 64.365083,96.086246 74.30282,84.454179 84.898109,84.840277 Z"
       id="path12"
       sodipodi:nodetypes="ccccc"
       inkscape:label="path12" />
    <path
       style="fill:#666666;fill-opacity:1;stroke:#ffffff;stroke-width:4;stroke-linecap:round;stroke-linejoin:round;stroke-dasharray:none;stroke-opacity:1"
       d="m 80.754006,70.500063 c 2.96064,0 4.482318,-0.539346 8.87435,-0.366687 0.533673,8.625831 -0.09759,16.804997 -0.146629,21.269373 -4.612976,0.626683 -6.064625,0.642119 -8.654513,0.586743 -0.567205,-6.641695 -0.514157,-16.363906 -0.07321,-21.489429 0,-10e-7 2e-6,0 2e-6,0 z"
       id="path6"
       sodipodi:nodetypes="scccss" />
    <path
       style="fill:#666666;fill-opacity:1;stroke:#ffffff;stroke-width:4;stroke-linecap:round;stroke-linejoin:round;stroke-dasharray:none;stroke-opacity:1"
       d="m 100.38046,102.69757 c 0,0 17.02487,-0.54812 22.09284,-0.3112 -0.43266,4.34412 -0.0542,5.81445 0.20768,8.81637 -13.41654,-0.3719 -17.64563,0.94657 -21.78195,1.03715 -0.7625,-3.75985 -0.52527,-4.77012 -0.51857,-9.54232 z"
       id="path7"
       sodipodi:nodetypes="ccccc" />
    <path
       style="fill:#666666;fill-opacity:1;stroke:#ffffff;stroke-width:4;stroke-linecap:round;stroke-linejoin:round;stroke-dasharray:none;stroke-opacity:1"
       d="m 80.941994,144.3784 c 3.961129,0.32337 4.779484,0.15876 9.024046,1.24482 0.687393,-5.44142 -0.207675,-23.33767 -0.207675,-23.33767 0,0 -4.326981,-0.4709 -9.127577,-1.03715 -0.730108,5.8146 0.05388,18.73614 0.311206,23.13 z"
       id="path8"
       sodipodi:nodetypes="ccccc" />
    <path
       style="fill:#666666;fill-opacity:1;stroke:#ffffff;stroke-width:4;stroke-linecap:round;stroke-linejoin:round;stroke-dasharray:none;stroke-opacity:1"
       d="m 48.535825,102.34008 c -0.226249,4.40263 0.818371,5.4527 -0.103836,9.64646 3.849102,0.25238 16.634578,-0.92939 21.574271,-1.55603 0.27222,-3.73831 0.613608,-2.80311 0.622411,-7.57155 -4.917957,0.003 -16.991451,-0.40964 -22.092846,-0.51888 z"
       id="path9"
       sodipodi:nodetypes="ccccc" />
    <path
       style="fill:#666666;fill-opacity:1;stroke:#ffffff;stroke-width:4;stroke-linecap:round;stroke-linejoin:round;stroke-dasharray:none;stroke-opacity:1"
       d="m 85.563846,101.54664 c 2.396529,0.33748 5.189422,3.55635 4.869587,5.9553 -0.341832,2.56394 -3.173874,4.60456 -5.75276,4.40462 -2.316773,-0.17962 -4.467951,-2.7628 -4.331414,-5.08251 0.167253,-2.84156 1.873249,-5.74794 5.214587,-5.27741 z"
       id="path10"
       sodipodi:nodetypes="sssss" />
    <ellipse
       style="fill:none;stroke:#666666;stroke-width:7.5;stroke-linecap:round;stroke-linejoin:round;stroke-dasharray:none;stroke-opacity:1"
       id="path1-3"
       cx="85.221947"
       cy="106.82954"
       rx="26.359322"
       ry="26.359324"
       inkscape:label="path1-3" />
  </g>
</svg>
