<?xml version="1.0" encoding="UTF-8" standalone="no"?>
<!-- Created with Inkscape (http://www.inkscape.org/) -->

<svg
   width="210mm"
   height="297mm"
   viewBox="0 0 210 297"
   version="1.1"
   id="svg20945"
   inkscape:export-filename="Shield.svg"
   inkscape:export-xdpi="96"
   inkscape:export-ydpi="96"
   sodipodi:docname="BrokenShield.svg"
   inkscape:version="1.2.2 (b0a8486541, 2022-12-01)"
   xmlns:inkscape="http://www.inkscape.org/namespaces/inkscape"
   xmlns:sodipodi="http://sodipodi.sourceforge.net/DTD/sodipodi-0.dtd"
   xmlns="http://www.w3.org/2000/svg"
   xmlns:svg="http://www.w3.org/2000/svg">
  <sodipodi:namedview
     id="namedview20947"
     pagecolor="#505050"
     bordercolor="#ffffff"
     borderopacity="1"
     inkscape:showpageshadow="0"
     inkscape:pageopacity="0"
     inkscape:pagecheckerboard="1"
     inkscape:deskcolor="#505050"
     inkscape:document-units="mm"
     showgrid="false"
     inkscape:zoom="0.914906"
     inkscape:cx="397.30857"
     inkscape:cy="560.71334"
     inkscape:window-width="2476"
     inkscape:window-height="1376"
     inkscape:window-x="84"
     inkscape:window-y="27"
     inkscape:window-maximized="1"
     inkscape:current-layer="layer1" />
  <defs
     id="defs20942" />
  <g
     inkscape:label="Layer 1"
     inkscape:groupmode="layer"
     id="layer1">
    <path
       style="fill:#3e3e3e;fill-opacity:1;stroke:#f5f5f5;stroke-width:13.4186;stroke-linejoin:round"
       d="m 11.451817,93.504291 c -1.7819916,-28.480797 9.914838,-56.470176 9.914838,-56.470176 0,0 25.655255,29.852071 41.599602,32.647005 16.350816,2.866186 44.288843,-12.211764 44.288843,-12.211764 0,0 23.09865,13.891523 37.60243,11.904652 15.32742,-2.099702 45.0738,-32.205523 45.0738,-32.205523 0,0 10.26161,28.681891 7.36706,57.726339 C 194.2139,125.84523 178.01397,177.74484 159.921,205.46008 141.82803,233.17532 129.69639,237.10875 99.462285,260.67391 72.167964,238.0885 63.656885,230.95888 45.233872,201.97476 27.474256,174.03434 13.328348,123.49606 11.451817,93.504291 Z"
       id="path21136"
       sodipodi:nodetypes="scccscszcss" />
    <path
       style="fill:#3e3e3e;fill-opacity:1;stroke:#f5f5f5;stroke-width:15;stroke-linecap:round;stroke-linejoin:round;stroke-dasharray:none;paint-order:fill markers stroke"
       d="M 128.25473,70.71453 92.716602,99.099964 126.86512,139.76547 59.476239,154.46574 98.275582,192.39969"
       id="path23209"
       sodipodi:nodetypes="ccccc" />
  </g>
</svg>
