<?xml version="1.0" encoding="UTF-8" standalone="no"?>
<!-- Created with Inkscape (http://www.inkscape.org/) -->

<svg
   width="91.368271mm"
   height="82.726379mm"
   viewBox="0 0 91.368271 82.726379"
   version="1.1"
   id="svg238"
   sodipodi:docname="Sword.svg"
   inkscape:export-filename="Sword.svg"
   inkscape:export-xdpi="96"
   inkscape:export-ydpi="96"
   inkscape:version="1.2.2 (b0a8486541, 2022-12-01)"
   xmlns:inkscape="http://www.inkscape.org/namespaces/inkscape"
   xmlns:sodipodi="http://sodipodi.sourceforge.net/DTD/sodipodi-0.dtd"
   xmlns="http://www.w3.org/2000/svg"
   xmlns:svg="http://www.w3.org/2000/svg">
  <sodipodi:namedview
     id="namedview240"
     pagecolor="#505050"
     bordercolor="#ffffff"
     borderopacity="1"
     inkscape:showpageshadow="0"
     inkscape:pageopacity="0"
     inkscape:pagecheckerboard="1"
     inkscape:deskcolor="#505050"
     inkscape:document-units="mm"
     showgrid="false"
     inkscape:zoom="1.6753039"
     inkscape:cx="200.26217"
     inkscape:cy="149.22665"
     inkscape:window-width="2476"
     inkscape:window-height="1376"
     inkscape:window-x="84"
     inkscape:window-y="27"
     inkscape:window-maximized="1"
     inkscape:current-layer="layer1" />
  <defs
     id="defs235" />
  <g
     inkscape:label="Layer 1"
     inkscape:groupmode="layer"
     id="layer1"
     transform="translate(-39.53781,-65.466347)">
    <path
       style="fill:#c65600;fill-opacity:1;stroke:#ffffff;stroke-width:4;stroke-linecap:round;stroke-linejoin:round;stroke-dasharray:none;stroke-opacity:1;paint-order:fill markers stroke"
       d="m 71.875737,128.28445 c 5.75188,3.13657 10.933347,16.33285 10.933347,16.33285 0,0 -5.401953,0.92578 -8.132451,1.03469 -4.726112,0.18851 -5.651125,-11.01083 -10.266636,-9.88542 -7.329932,2.54307 -11.998062,6.841 -15.876822,10.4262 -3.558707,-1.90152 -5.162118,-3.28063 -6.995419,-7.07798 4.884359,-3.4696 8.204893,-6.39587 12.113856,-13.2883 1.603369,-4.36157 -9.093249,-6.34275 -8.609705,-10.96446 0.311091,-2.9734 2.896413,-7.47027 2.896413,-7.47027 0,0 13.056221,5.95773 15.794504,11.96925 1.668435,3.66282 3.865853,6.5911 8.142913,8.92344 z"
       id="path2750"
       sodipodi:nodetypes="scsccccscss" />
    <path
       style="fill:#c65600;fill-opacity:1;stroke:#ffffff;stroke-width:4;stroke-linecap:round;stroke-linejoin:round;stroke-dasharray:none;stroke-opacity:1;paint-order:fill markers stroke"
       d="M 115.60911,69.207618 C 97.939209,83.753127 77.690889,105.31571 70.193721,111.21406 c 4.791851,2.82427 7.048597,5.0988 8.604526,9.93651 6.253368,-7.28974 31.748813,-26.521646 48.149713,-42.697792 0.74164,-3.961147 1.66156,-6.428452 1.95813,-10.946474 -4.93987,-0.25992 -7.16139,0.806887 -13.29698,1.701314 z"
       id="path413"
       sodipodi:nodetypes="cccccc" />
  </g>
</svg>
