<?xml version="1.0" encoding="UTF-8" standalone="no"?>
<!-- Created with Inkscape (http://www.inkscape.org/) -->

<svg
   width="239.15404mm"
   height="209.26393mm"
   viewBox="0 0 239.15404 209.26393"
   version="1.1"
   id="svg5"
   sodipodi:docname="BeeHappy.svg"
   inkscape:export-filename="BeeHappy.svg"
   inkscape:export-xdpi="96"
   inkscape:export-ydpi="96"
   inkscape:version="1.2.2 (b0a8486541, 2022-12-01)"
   xmlns:inkscape="http://www.inkscape.org/namespaces/inkscape"
   xmlns:sodipodi="http://sodipodi.sourceforge.net/DTD/sodipodi-0.dtd"
   xmlns="http://www.w3.org/2000/svg"
   xmlns:svg="http://www.w3.org/2000/svg">
  <sodipodi:namedview
     id="namedview7"
     pagecolor="#505050"
     bordercolor="#ffffff"
     borderopacity="1"
     inkscape:showpageshadow="0"
     inkscape:pageopacity="0"
     inkscape:pagecheckerboard="1"
     inkscape:deskcolor="#505050"
     inkscape:document-units="mm"
     showgrid="false"
     inkscape:zoom="1.2984898"
     inkscape:cx="454.75906"
     inkscape:cy="400.08015"
     inkscape:window-width="2560"
     inkscape:window-height="1371"
     inkscape:window-x="0"
     inkscape:window-y="0"
     inkscape:window-maximized="1"
     inkscape:current-layer="layer1" />
  <defs
     id="defs2" />
  <g
     inkscape:label="Layer 1"
     inkscape:groupmode="layer"
     id="layer1"
     transform="translate(-9.2486384,-17.356952)">
    <path
       style="fill:#d5f6ff;fill-opacity:1;stroke:#000000;stroke-width:8.57726;stroke-linecap:square;stroke-linejoin:round;stroke-dasharray:none;paint-order:markers stroke fill"
       id="path790-5-6"
       sodipodi:type="arc"
       sodipodi:cx="133.38646"
       sodipodi:cy="105.31369"
       sodipodi:rx="57.721039"
       sodipodi:ry="42.024914"
       sodipodi:start="0.13901141"
       sodipodi:end="0.13897978"
       sodipodi:arc-type="arc"
       d="M 190.55069,111.13684 A 57.721039,42.024914 0 0 1 125.38885,146.93326 57.721039,42.024914 0 0 1 76.222102,99.491203 57.721039,42.024914 0 0 1 141.38317,63.694033 57.721039,42.024914 0 0 1 190.55094,111.13552"
       transform="rotate(-15.790209)"
       sodipodi:open="true" />
    <path
       style="fill:#808080;fill-opacity:1;stroke:#000000;stroke-width:10;stroke-linecap:round;stroke-linejoin:round;stroke-dasharray:none;paint-order:markers stroke fill"
       d="m 205.90204,120.95282 37.50178,13.75614 -33.28352,9.0219"
       id="path1765"
       sodipodi:nodetypes="ccc" />
    <path
       style="fill:#ffcc00;fill-opacity:1;stroke:#000000;stroke-width:10;stroke-linecap:square;stroke-linejoin:round;stroke-dasharray:none;paint-order:markers stroke fill"
       id="path790"
       sodipodi:type="arc"
       sodipodi:cx="112.51636"
       sodipodi:cy="141.64333"
       sodipodi:rx="95.766556"
       sodipodi:ry="77.465569"
       sodipodi:start="0.13901141"
       sodipodi:end="0.13897978"
       sodipodi:arc-type="arc"
       d="M 207.3591,152.37727 A 95.766556,77.465569 0 0 1 99.247298,218.3617 95.766556,77.465569 0 0 1 17.673407,130.91059 95.766556,77.465569 0 0 1 125.78392,64.924777 a 95.766556,77.465569 0 0 1 81.5756,87.450073"
       sodipodi:open="true" />
    <path
       style="fill:#ffcc00;fill-opacity:1;stroke:#000000;stroke-width:10;stroke-linecap:square;stroke-linejoin:round;stroke-dasharray:none;paint-order:markers stroke fill"
       d="M 61.435241,77.794538 61.001138,204.43383"
       id="path1422"
       sodipodi:nodetypes="cc" />
    <path
       style="fill:#ffcc00;fill-opacity:1;stroke:#000000;stroke-width:10.0614;stroke-linecap:square;stroke-linejoin:round;stroke-dasharray:none;paint-order:markers stroke fill"
       d="M 96.563939,66.669097 96.191479,216.0818"
       id="path1422-3"
       sodipodi:nodetypes="cc" />
    <path
       style="fill:#ffcc00;fill-opacity:1;stroke:#000000;stroke-width:10.0614;stroke-linecap:square;stroke-linejoin:round;stroke-dasharray:none;paint-order:markers stroke fill"
       d="M 131.39605,66.684448 131.02359,216.09715"
       id="path1422-3-6"
       sodipodi:nodetypes="cc" />
    <path
       style="fill:#ffcc00;fill-opacity:1;stroke:#000000;stroke-width:10.009;stroke-linecap:square;stroke-linejoin:round;stroke-dasharray:none;paint-order:markers stroke fill"
       d="m 160.81716,76.609679 -0.425,129.576121"
       id="path1422-3-7"
       sodipodi:nodetypes="cc" />
    <path
       style="fill:#ffcc00;fill-opacity:1;stroke:#000000;stroke-width:9.90233;stroke-linecap:square;stroke-linejoin:round;stroke-dasharray:none;paint-order:markers stroke fill"
       d="M 185.51518,91.439258 184.98324,192.77109"
       id="path1422-3-5"
       sodipodi:nodetypes="cc" />
    <path
       style="fill:#ffffff;fill-opacity:1;stroke:#000000;stroke-width:7.5;stroke-linecap:round;stroke-linejoin:round;stroke-dasharray:none;stroke-opacity:1;paint-order:markers stroke fill"
       id="path4522"
       sodipodi:type="arc"
       sodipodi:cx="42.937744"
       sodipodi:cy="121.12979"
       sodipodi:rx="6.4315381"
       sodipodi:ry="10.71448"
       sodipodi:start="0.13901141"
       sodipodi:end="0.13897978"
       sodipodi:arc-type="arc"
       d="m 49.30724,122.61443 a 6.4315381,10.71448 0 0 1 -7.260626,9.1265 6.4315381,10.71448 0 0 1 -5.47838,-12.09561 6.4315381,10.71448 0 0 1 7.26054,-9.12669 6.4315381,10.71448 0 0 1 5.478494,12.09547"
       sodipodi:open="true" />
    <path
       style="fill:#000000;fill-opacity:1;stroke:#000000;stroke-width:4.99999;stroke-linecap:round;stroke-linejoin:round;stroke-dasharray:none;stroke-opacity:1;paint-order:markers stroke fill"
       id="path6292"
       sodipodi:type="arc"
       sodipodi:cx="40.166859"
       sodipodi:cy="122.34258"
       sodipodi:rx="2.1690593"
       sodipodi:ry="5.1686897"
       sodipodi:start="0.13901141"
       sodipodi:end="0.13897978"
       sodipodi:arc-type="arc"
       d="m 42.314994,123.05878 a 2.1690593,5.1686897 0 0 1 -2.448672,4.40264 2.1690593,5.1686897 0 0 1 -1.847603,-5.83495 2.1690593,5.1686897 0 0 1 2.448643,-4.40273 2.1690593,5.1686897 0 0 1 1.847642,5.83488"
       sodipodi:open="true" />
    <path
       style="fill:#000000;fill-opacity:0;stroke:#000000;stroke-width:7.10746;stroke-linecap:round;stroke-linejoin:round;stroke-dasharray:none;stroke-opacity:1;paint-order:markers stroke fill"
       d="m 18.283843,163.92136 c 0,0 10.624931,1.19151 16.938137,-1.40519 6.313207,-2.59669 12.449159,-8.98728 12.449159,-8.98728"
       id="path6772"
       sodipodi:nodetypes="czc" />
    <path
       style="fill:#d5f6ff;fill-opacity:1;stroke:#000000;stroke-width:8.57726;stroke-linecap:square;stroke-linejoin:round;stroke-dasharray:none;paint-order:markers stroke fill"
       id="path790-5"
       sodipodi:type="arc"
       sodipodi:cx="135.09772"
       sodipodi:cy="136.70033"
       sodipodi:rx="57.721039"
       sodipodi:ry="42.024914"
       sodipodi:start="0.13901141"
       sodipodi:end="0.13897978"
       sodipodi:arc-type="arc"
       d="M 192.26195,142.52348 A 57.721039,42.024914 0 0 1 127.1001,178.3199 57.721039,42.024914 0 0 1 77.93336,130.87785 57.721039,42.024914 0 0 1 143.09443,95.080676 57.721039,42.024914 0 0 1 192.2622,142.52216"
       transform="rotate(-20.812133)"
       sodipodi:open="true" />
  </g>
</svg>
