<?xml version="1.0" encoding="UTF-8" standalone="no"?>
<!-- Created with Inkscape (http://www.inkscape.org/) -->

<svg
   width="256.82693mm"
   height="235.51562mm"
   viewBox="0 0 256.82693 235.51564"
   version="1.1"
   id="svg134"
   inkscape:export-filename="Dash.svg"
   inkscape:export-xdpi="96"
   inkscape:export-ydpi="96"
   sodipodi:docname="Jump.svg"
   xmlns:inkscape="http://www.inkscape.org/namespaces/inkscape"
   xmlns:sodipodi="http://sodipodi.sourceforge.net/DTD/sodipodi-0.dtd"
   xmlns="http://www.w3.org/2000/svg"
   xmlns:svg="http://www.w3.org/2000/svg">
  <sodipodi:namedview
     id="namedview136"
     pagecolor="#505050"
     bordercolor="#ffffff"
     borderopacity="1"
     inkscape:showpageshadow="0"
     inkscape:pageopacity="0"
     inkscape:pagecheckerboard="1"
     inkscape:deskcolor="#505050"
     inkscape:document-units="mm"
     showgrid="false" />
  <defs
     id="defs131" />
  <g
     inkscape:label="Layer 1"
     inkscape:groupmode="layer"
     id="layer1"
     transform="translate(18.685773,-27.842216)">
    <path
       style="fill:#7d3abf;fill-opacity:1;stroke:#ffffff;stroke-width:13;stroke-linecap:square;stroke-linejoin:round;stroke-dasharray:none"
       d="M 99.886735,34.341784 C 136.10272,60.535389 231.64147,143.89325 231.64147,143.89325 c 0,0 -87.78778,84.57 -136.969217,112.96492 -3.97909,-14.85018 -3.112635,-56.19799 4.603175,-77.18748 13.914662,-9.87882 33.255962,-22.32434 43.814012,-34.89497 C 132.32912,132.13815 116.7042,115.53551 99.199708,101.23827 91.986658,76.60526 97.160325,44.722689 99.886735,34.341784 Z"
       id="path413"
       sodipodi:nodetypes="ccccccc" />
    <path
       style="fill:#7d3abf;fill-opacity:1;stroke:#ffffff;stroke-width:13;stroke-linecap:round;stroke-linejoin:round;stroke-dasharray:none;paint-order:fill markers stroke"
       d="m 67.352525,105.92819 c 0,0 16.61059,24.345 29.57199,34.88785 -16.495842,12.5304 -34.664744,27.98331 -34.664744,27.98331 0,0 -44.62595,6.30018 -67.462605,3.45884 -10.575983,-16.89987 -8.927936,-53.3644 3.6352874,-75.360108 20.7183346,-0.44332 68.9200716,9.030108 68.9200716,9.030108 z"
       id="path562"
       sodipodi:nodetypes="cccccc" />
  </g>
</svg>
