<?xml version="1.0" encoding="UTF-8" standalone="no"?>
<!-- Created with Inkscape (http://www.inkscape.org/) -->

<svg
   width="178.50255mm"
   height="178.59291mm"
   viewBox="0 0 178.50256 178.59291"
   version="1.1"
   id="svg5"
   inkscape:export-filename="Pause.svg"
   inkscape:export-xdpi="96"
   inkscape:export-ydpi="96"
   sodipodi:docname="Pause.svg"
   xmlns:inkscape="http://www.inkscape.org/namespaces/inkscape"
   xmlns:sodipodi="http://sodipodi.sourceforge.net/DTD/sodipodi-0.dtd"
   xmlns="http://www.w3.org/2000/svg"
   xmlns:svg="http://www.w3.org/2000/svg">
  <sodipodi:namedview
     id="namedview7"
     pagecolor="#505050"
     bordercolor="#ffffff"
     borderopacity="1"
     inkscape:showpageshadow="0"
     inkscape:pageopacity="0"
     inkscape:pagecheckerboard="1"
     inkscape:deskcolor="#505050"
     inkscape:document-units="mm"
     showgrid="false" />
  <defs
     id="defs2" />
  <g
     inkscape:label="Layer 1"
     inkscape:groupmode="layer"
     id="layer1"
     transform="translate(-28.548105,-48.066116)">
    <path
       style="fill:#4d4d4d;fill-opacity:1;stroke:#ffffff;stroke-width:11.6544;stroke-linecap:round;stroke-linejoin:round;stroke-dasharray:none;paint-order:fill markers stroke"
       d="m 34.375148,54.662421 45.783141,-0.398229 c 0,0 11.582604,55.748028 12.152744,83.846348 0.56102,27.64844 -8.605556,82.72129 -8.605556,82.72129 l -48.203016,-0.39099 c 0,0 12.648816,-54.49431 12.510711,-81.98915 -0.14126,-28.1217 -13.638024,-83.789269 -13.638024,-83.789269 z"
       id="path299"
       sodipodi:nodetypes="ccsccsc" />
    <path
       style="fill:#4d4d4d;fill-opacity:1;stroke:#ffffff;stroke-width:11.6544;stroke-linecap:round;stroke-linejoin:round;stroke-dasharray:none;paint-order:fill markers stroke"
       d="m 201.22361,220.06274 -45.78311,0.39823 c 0,0 -11.5826,-55.74803 -12.15275,-83.84635 -0.56103,-27.64844 8.60557,-82.721308 8.60557,-82.721308 l 48.20298,0.390986 c 0,0 -12.64882,54.494342 -12.5107,81.989172 0.14121,28.12169 13.63801,83.78927 13.63801,83.78927 z"
       id="path299-3"
       sodipodi:nodetypes="ccsccsc" />
  </g>
</svg>
